<svg aria-hidden="true" style="position: absolute; width: 0; height: 0; overflow: hidden;" version="1.1"
     xmlns="http://www.w3.org/2000/svg" xmlns:xlink="http://www.w3.org/1999/xlink">
  <defs>
    <symbol id="add" viewBox="0 0 16 16">
      <path id="Vector" d="M16 7.5V8.5H8.5V16H7.5V8.5H0V7.5H7.5V0H8.5V7.5H16Z"/>
    </symbol>

    <symbol id="addCircle" viewBox="0 0 16 16">
      <path id="Vector"
            d="M8 0C8.73438 0 9.44271 0.09375 10.125 0.28125C10.8073 0.46875 11.4427 0.739583 12.0312 1.09375C12.6198 1.44792 13.1589 1.86458 13.6484 2.34375C14.138 2.82292 14.5573 3.36198 14.9062 3.96094C15.2552 4.5599 15.5234 5.19792 15.7109 5.875C15.8984 6.55208 15.9948 7.26042 16 8C16 8.73438 15.9062 9.44271 15.7188 10.125C15.5312 10.8073 15.2604 11.4427 14.9062 12.0312C14.5521 12.6198 14.1354 13.1589 13.6562 13.6484C13.1771 14.138 12.638 14.5573 12.0391 14.9062C11.4401 15.2552 10.8021 15.5234 10.125 15.7109C9.44792 15.8984 8.73958 15.9948 8 16C7.26562 16 6.55729 15.9062 5.875 15.7188C5.19271 15.5312 4.55469 15.263 3.96094 14.9141C3.36719 14.5651 2.82812 14.1484 2.34375 13.6641C1.85938 13.1797 1.44271 12.638 1.09375 12.0391C0.744792 11.4401 0.476562 10.8047 0.289062 10.1328C0.101562 9.46094 0.00520833 8.75 0 8C0 7.26562 0.09375 6.55729 0.28125 5.875C0.46875 5.19271 0.739583 4.55729 1.09375 3.96875C1.44792 3.38021 1.86458 2.84115 2.34375 2.35156C2.82292 1.86198 3.36198 1.44271 3.96094 1.09375C4.5599 0.744792 5.19792 0.476562 5.875 0.289062C6.55208 0.101562 7.26042 0.00520833 8 0ZM8 15C8.64583 15 9.26562 14.9167 9.85938 14.75C10.4531 14.5833 11.0104 14.349 11.5312 14.0469C12.0521 13.7448 12.5234 13.3802 12.9453 12.9531C13.3672 12.526 13.7318 12.0547 14.0391 11.5391C14.3464 11.0234 14.5833 10.4661 14.75 9.86719C14.9167 9.26823 15 8.64583 15 8C15 7.35417 14.9167 6.73438 14.75 6.14062C14.5833 5.54688 14.349 4.98958 14.0469 4.46875C13.7448 3.94792 13.3802 3.47656 12.9531 3.05469C12.526 2.63281 12.0547 2.26823 11.5391 1.96094C11.0234 1.65365 10.4661 1.41667 9.86719 1.25C9.26823 1.08333 8.64583 1 8 1C7.35417 1 6.73438 1.08333 6.14062 1.25C5.54688 1.41667 4.98958 1.65104 4.46875 1.95312C3.94792 2.25521 3.47656 2.61979 3.05469 3.04688C2.63281 3.47396 2.26823 3.94531 1.96094 4.46094C1.65365 4.97656 1.41667 5.53385 1.25 6.13281C1.08333 6.73177 1 7.35417 1 8C1 8.64583 1.08333 9.26562 1.25 9.85938C1.41667 10.4531 1.65104 11.0104 1.95312 11.5312C2.25521 12.0521 2.61979 12.526 3.04688 12.9531C3.47396 13.3802 3.94531 13.7448 4.46094 14.0469C4.97656 14.349 5.53385 14.5833 6.13281 14.75C6.73177 14.9167 7.35417 15 8 15ZM8.5 7.49219H12V8.49219H8.5V12H7.5V8.49219H4V7.49219H7.5V4H8.5V7.49219Z"
           />
    </symbol>

    <symbol id="angle" viewBox="0 0 16 16">
      <path
        d="M0 0V16H16L0 0ZM1 2.41L2.7 4.11L1.89 4.91L2.6 5.62L3.41 4.82L6.94 8.35L6.14 9.16L6.84 9.86L7.65 9.06L11.18 12.59L10.38 13.4L11.09 14.11L11.89 13.3L13.59 15H1V2.41Z"
       />
      <path d="M3 13H7.7L3 8.31V13ZM4 10.73L5.29 12H4V10.73Z"/>
    </symbol>

    <symbol id="arrowDown" viewBox="0 0 16 16">
      <path id="Vector"
            d="M8.00001 16.0216L0.626842 8.64844L1.33203 7.94325L7.49854 14.1098L7.49854 0.0216061L8.50147 0.0216061L8.50147 14.1098L14.668 7.94325L15.3732 8.64844L8.00001 16.0216Z"
           />
    </symbol>

    <symbol id="arrowDownKey" viewBox="0 0 16 16">
      <path id="Vector" d="M3.41 4.59L8 9.17L12.59 4.59L14 6L8 12L2 6L3.41 4.59Z"/>
    </symbol>

    <symbol id="arrowDownSmall" viewBox="0 0 16 16">
      <path id="Vector" d="M4 6L8.00002 10L12 6H4Z"/>
    </symbol>

    <symbol id="arrowLeft" viewBox="0 0 16 16">
      <path id="Vector"
            d="M0 8L7.37316 15L8.07835 14.3305L1.91185 8.47609H16V7.52391H1.91185L8.07835 1.6695L7.37316 1L0 8Z"
           />
    </symbol>

    <symbol id="arrowLeftKey" viewBox="0 0 16 16">
      <path id="Vector" d="M11.41 12.59L6.83 8L11.41 3.41L10 2L4 8L10 14L11.41 12.59Z"/>
    </symbol>

    <symbol id="arrowRight" viewBox="0 0 16 16">
      <path id="Vector"
            d="M16 8.0216L8.62684 15.3948L7.92165 14.6896L14.0881 8.52307H0V7.52013H14.0881L7.92165 1.35363L8.62684 0.648438L16 8.0216Z"
           />
    </symbol>

    <symbol id="arrowRightKey" viewBox="0 0 16 16">
      <path id="Vector" d="M4.59 12.59L9.17 8L4.59 3.41L6 2L12 8L6 14L4.59 12.59Z"/>
    </symbol>

    <symbol id="arrowRightSmall" viewBox="0 0 16 16">
      <path id="Vector" d="M6 12L10 8L6 4V12Z"/>
    </symbol>

    <symbol id="arrowUp" viewBox="0 0 16 16" clip-path="url(#clip0)">
      <path id="Vector"
            d="M7.99999 0.0216065L15.3732 7.39477L14.668 8.09996L8.50146 1.93346L8.50146 16.0216L7.49853 16.0216L7.49853 1.93346L1.33202 8.09996L0.626831 7.39477L7.99999 0.0216065Z"
           />
    </symbol>

    <symbol id="arrowUpDownSmall" viewBox="0 0 16 16">
      <path d="M4 9L8.00002 13L12 9H4Z"/>
      <path d="M4 7L8 3L12 7H4Z"/>
    </symbol>

    <symbol id="arrowUpKey" viewBox="0 0 16 16">
      <path id="Vector" d="M3.41 11.41L8 6.83L12.59 11.41L14 10L8 4L2 10L3.41 11.41Z"/>
    </symbol>

    <symbol id="calculator" viewBox="0 0 16 16">
      <path id="Vector"
            d="M2.5 0H13.5V16H2.5V0ZM12.5 15V1H3.5V15H12.5ZM11.5 2V5H4.5V2H11.5ZM10.5 4V3H5.5V4H10.5ZM5.5 7V8H4.5V7H5.5ZM7.5 8V7H8.5V8H7.5ZM10.5 8V7H11.5V8H10.5ZM5.5 10V11H4.5V10H5.5ZM7.5 11V10H8.5V11H7.5ZM10.5 11V10H11.5V11H10.5ZM5.5 13V14H4.5V13H5.5ZM7.5 14V13H8.5V14H7.5ZM10.5 14V13H11.5V14H10.5Z"
           />
    </symbol>

    <symbol id="calendar" viewBox="0 0 16 16">
      <path id="Vector"
            d="M13 1.5H16V15.5H0V1.5H3V0.5H4V1.5H12V0.5H13V1.5ZM3 2.5H1V4.5H15V2.5H13V3.5H12V2.5H4V3.5H3V2.5ZM1 14.5H15V5.5H1V14.5Z"
           />
    </symbol>

    <symbol id="checkboxOff" viewBox="0 0 16 16">
      <path id="Vector" d="M16 0V16H0V0H16ZM15 1H1V15H15V1Z"/>
    </symbol>

    <symbol id="checkboxOn" viewBox="0 0 16 16">
      <path id="Subtract" fill-rule="evenodd" clip-rule="evenodd"
            d="M16 16V0H0V16H16ZM12.6484 4.64844L13.3516 5.35156L6 12.7109L2.64844 9.35156L3.35156 8.64844L6 11.2891L12.6484 4.64844Z"
           />
    </symbol>

    <symbol id="checkboxUndefined" viewBox="0 0 16 16">
      <path id="Vector"
            d="M14.2222 0H1.77779C0.8 0 0 0.8 0 1.77779V14.2223C0 15.2 0.8 16 1.77779 16H14.2223C15.2 16 16 15.2 16 14.2222V1.77779C16 0.8 15.2 0 14.2222 0ZM12.4445 8.88888H3.55554V7.11108H12.4444L12.4445 8.88888Z"
           />
    </symbol>

    <symbol id="closeBig" viewBox="0 0 16 16">
      <path id="Vector"
            d="M8.71094 8L14.1016 13.3984L13.3984 14.1016L8 8.71094L2.60156 14.1016L1.89844 13.3984L7.28906 8L1.89844 2.60156L2.60156 1.89844L8 7.28906L13.3984 1.89844L14.1016 2.60156L8.71094 8Z"
           />
    </symbol>

    <symbol id="closeSmall" viewBox="0 0 16 16">
      <path id="Vector"
            d="M2.34313 2.34315C2.86241 1.82386 3.42957 1.38929 4.04461 1.03942C4.65964 0.689547 5.30046 0.431748 5.96706 0.26602C6.63365 0.100291 7.30945 0.0137444 7.99446 0.00637895C8.67947 -0.000986468 9.35712 0.0837186 10.0274 0.260495C10.6977 0.437272 11.3385 0.698754 11.9498 1.04494C12.5612 1.39113 13.1302 1.82386 13.6568 2.34315C14.1761 2.86243 14.6107 3.42959 14.9606 4.04462C15.3104 4.65966 15.5682 5.30047 15.734 5.96707C15.8997 6.63366 15.9862 7.30947 15.9936 7.99448C16.001 8.67949 15.9163 9.35713 15.7395 10.0274C15.5627 10.6977 15.3012 11.3385 14.955 11.9499C14.6089 12.5612 14.1761 13.1302 13.6568 13.6569C13.1376 14.1761 12.5704 14.6107 11.9554 14.9606C11.3403 15.3105 10.6995 15.5719 10.0329 15.745C9.36632 15.9181 8.69052 16.0047 8.00551 16.0047C7.3205 16.0047 6.64286 15.9163 5.97258 15.7395C5.3023 15.5627 4.66333 15.3031 4.05566 14.9606C3.44799 14.6181 2.87715 14.1835 2.34313 13.6569C1.82385 13.1376 1.38928 12.5704 1.03941 11.9554C0.689535 11.3403 0.431735 10.6995 0.266007 10.0329C0.100279 9.36634 0.0137322 8.69053 0.00636655 8.00552C-0.000999119 7.32051 0.0837064 6.64287 0.260483 5.97259C0.43726 5.30231 0.698742 4.6615 1.04493 4.05015C1.39112 3.43879 1.82385 2.86979 2.34313 2.34315ZM12.9497 12.9497C13.4064 12.4931 13.7857 11.9959 14.0877 11.4582C14.3897 10.9205 14.6181 10.3607 14.7727 9.77882C14.9274 9.19693 15.0029 8.60583 14.9992 8.00552C14.9956 7.40522 14.9201 6.81412 14.7727 6.23223C14.6254 5.65034 14.3989 5.08871 14.0933 4.54733C13.7876 4.00595 13.4064 3.50693 12.9497 3.05025C12.4931 2.59358 11.9959 2.21425 11.4582 1.91225C10.9205 1.61026 10.3607 1.38192 9.7788 1.22724C9.19691 1.07256 8.60582 0.997065 8.00551 1.00075C7.40521 1.00443 6.81411 1.07993 6.23222 1.22724C5.65033 1.37456 5.0887 1.60105 4.54732 1.90673C4.00594 2.2124 3.50691 2.59358 3.05024 3.05025C2.59357 3.50693 2.21423 4.00411 1.91224 4.54181C1.61025 5.0795 1.38191 5.63929 1.22723 6.22118C1.07255 6.80307 0.997053 7.39417 1.00074 7.99448C1.00442 8.59478 1.07992 9.18588 1.22723 9.76777C1.37454 10.3497 1.60104 10.9113 1.90672 11.4527C2.21239 11.994 2.59357 12.4931 3.05024 12.9497C3.50691 13.4064 4.0041 13.7858 4.54179 14.0877C5.07949 14.3897 5.63928 14.6181 6.22117 14.7728C6.80306 14.9274 7.396 15.0048 7.99999 15.0048C8.60397 15.0048 9.19507 14.9293 9.77328 14.7783C10.3515 14.6273 10.9113 14.3989 11.4527 14.0933C11.994 13.7876 12.4931 13.4064 12.9497 12.9497ZM7.99446 7.28737L10.4693 4.8125L11.1764 5.5196L8.70157 7.99448L11.182 10.4749L10.4749 11.182L7.99446 8.70158L5.51959 11.1765L4.81248 10.4693L7.28736 7.99448L4.81801 5.52513L5.52511 4.81802L7.99446 7.28737Z"
           />
    </symbol>

    <symbol id="copy" viewBox="0 0 16 16">
      <path id="Vector"
            d="M15 6.28906V16H5V13H1V0H7.71094L10.7109 3H11.7109L15 6.28906ZM12 6H13.2891L12 4.71094V6ZM5 3H9.28906L7.28906 1H2V12H5V3ZM14 7H11V4H6V15H14V7Z"
           />
    </symbol>

    <symbol id="cut" viewBox="0 0 16 16">
      <path id="Vector"
            d="M11.0625 12C11.3281 12.0104 11.5781 12.0677 11.8125 12.1719C12.0469 12.276 12.2526 12.4219 12.4297 12.6094C12.6068 12.7969 12.7448 13.0078 12.8438 13.2422C12.9427 13.4766 12.9948 13.7292 13 14C13 14.276 12.9479 14.5339 12.8438 14.7734C12.7396 15.013 12.5964 15.224 12.4141 15.4062C12.2318 15.5885 12.0182 15.7318 11.7734 15.8359C11.5286 15.9401 11.2708 15.9948 11 16C10.724 16 10.4661 15.9479 10.2266 15.8438C9.98698 15.7396 9.77604 15.5964 9.59375 15.4141C9.41146 15.2318 9.26823 15.0208 9.16406 14.7812C9.0599 14.5417 9.00521 14.2812 9 14C9 13.6302 9.09375 13.2865 9.28125 12.9688C9.46875 12.651 9.72917 12.4062 10.0625 12.2344L7.98438 8.08594L5.91406 12.2188C6.08073 12.3073 6.22917 12.4141 6.35938 12.5391C6.48958 12.6641 6.60417 12.8047 6.70312 12.9609C6.80208 13.1172 6.875 13.2812 6.92188 13.4531C6.96875 13.625 6.99479 13.8073 7 14C7 14.276 6.94792 14.5339 6.84375 14.7734C6.73958 15.013 6.59635 15.224 6.41406 15.4062C6.23177 15.5885 6.01823 15.7318 5.77344 15.8359C5.52865 15.9401 5.27083 15.9948 5 16C4.72396 16 4.46615 15.9479 4.22656 15.8438C3.98698 15.7396 3.77604 15.5964 3.59375 15.4141C3.41146 15.2318 3.26823 15.0208 3.16406 14.7812C3.0599 14.5417 3.00521 14.2812 3 14C3 13.7344 3.04948 13.4844 3.14844 13.25C3.2474 13.0156 3.38281 12.8073 3.55469 12.625C3.72656 12.4427 3.92708 12.2969 4.15625 12.1875C4.38542 12.0781 4.63542 12.0156 4.90625 12L7.42188 6.95312L4.77344 1.65625L5.22656 0.289062L7.98438 5.82031L10.7422 0.289062L11.1953 1.65625L8.54688 6.95312L11.0625 12ZM5 15C5.14062 15 5.27083 14.974 5.39062 14.9219C5.51042 14.8698 5.61458 14.7995 5.70312 14.7109C5.79167 14.6224 5.86458 14.5156 5.92188 14.3906C5.97917 14.2656 6.00521 14.1354 6 14C6 13.8594 5.97396 13.7292 5.92188 13.6094C5.86979 13.4896 5.79948 13.3854 5.71094 13.2969C5.6224 13.2083 5.51562 13.1354 5.39062 13.0781C5.26562 13.0208 5.13542 12.9948 5 13C4.85938 13 4.72917 13.026 4.60938 13.0781C4.48958 13.1302 4.38542 13.2005 4.29688 13.2891C4.20833 13.3776 4.13542 13.4844 4.07812 13.6094C4.02083 13.7344 3.99479 13.8646 4 14C4 14.1406 4.02604 14.2708 4.07812 14.3906C4.13021 14.5104 4.20052 14.6146 4.28906 14.7031C4.3776 14.7917 4.48438 14.8646 4.60938 14.9219C4.73438 14.9792 4.86458 15.0052 5 15ZM11 15C11.1406 15 11.2708 14.974 11.3906 14.9219C11.5104 14.8698 11.6146 14.7995 11.7031 14.7109C11.7917 14.6224 11.8646 14.5156 11.9219 14.3906C11.9792 14.2656 12.0052 14.1354 12 14C12 13.8594 11.974 13.7292 11.9219 13.6094C11.8698 13.4896 11.7995 13.3854 11.7109 13.2969C11.6224 13.2083 11.5156 13.1354 11.3906 13.0781C11.2656 13.0208 11.1354 12.9948 11 13C10.8594 13 10.7292 13.026 10.6094 13.0781C10.4896 13.1302 10.3854 13.2005 10.2969 13.2891C10.2083 13.3776 10.1354 13.4844 10.0781 13.6094C10.0208 13.7344 9.99479 13.8646 10 14C10 14.1406 10.026 14.2708 10.0781 14.3906C10.1302 14.5104 10.2005 14.6146 10.2891 14.7031C10.3776 14.7917 10.4844 14.8646 10.6094 14.9219C10.7344 14.9792 10.8646 15.0052 11 15Z"
           />
    </symbol>

    <symbol id="delete" viewBox="0 0 16 16">
      <path id="&#240;&#159;&#142;&#168;Color"
            d="M7.95551 0.5C9.17332 0.5 10.1685 1.50478 10.2357 2.7708L10.2393 2.90741H13.9285C14.2196 2.90741 14.4555 3.15614 14.4555 3.46296C14.4555 3.74422 14.2572 3.97666 14 4.01345L13.9285 4.01852H13.3691L12.4696 13.6624C12.3763 14.6617 11.6085 15.4333 10.6698 15.4959L10.5464 15.5H5.3646C4.41202 15.5 3.60835 14.77 3.45739 13.7914L3.44145 13.6624L2.54119 4.01852H1.98254C1.71573 4.01852 1.49522 3.80952 1.46032 3.53835L1.45551 3.46296C1.45551 3.18171 1.65378 2.94927 1.91103 2.91248L1.98254 2.90741H5.67173C5.67173 1.57783 6.69421 0.5 7.95551 0.5ZM12.3102 4.01852H3.60016L4.49044 13.5536C4.53172 13.996 4.86385 14.3402 5.2753 14.3841L5.3646 14.3889H10.5464C10.9681 14.3889 11.3256 14.0742 11.4074 13.6468L11.4206 13.5536L12.3102 4.01852ZM7.95551 1.61111C7.31031 1.61111 6.78116 2.1349 6.72986 2.80109L6.72578 2.90741H9.18524C9.18524 2.19148 8.63467 1.61111 7.95551 1.61111Z"
           />
    </symbol>

    <symbol id="download" viewBox="0 0 16 16">
      <path id="Vector"
            d="M12.6377 16V15H3.36232V16H12.6377ZM13 8.35156L12.2754 7.64844L8.5153 11.3203V0H7.4847V11.3203L3.72464 7.64844L3 8.35156L8 13.2422L13 8.35156Z"
           />
    </symbol>

    <symbol id="edit" viewBox="0 0 16 16">
      <path id="Vector"
            d="M16 2.61719C16 2.96094 15.9349 3.29427 15.8047 3.61719C15.6745 3.9401 15.4844 4.22656 15.2344 4.47656L4.94531 14.7656L0 16L1.23438 11.0547L11.5234 0.765625C11.7734 0.515625 12.0599 0.325521 12.3828 0.195312C12.7057 0.0651042 13.0391 0 13.3828 0C13.7422 0 14.0807 0.0677083 14.3984 0.203125C14.7161 0.338542 14.9922 0.526042 15.2266 0.765625C15.4609 1.00521 15.6484 1.28385 15.7891 1.60156C15.9297 1.91927 16 2.25781 16 2.61719ZM2.54688 11.1562C3.09896 11.3385 3.57292 11.6276 3.96875 12.0234C4.36458 12.4193 4.65625 12.8958 4.84375 13.4531L13.2891 5L11 2.71094L2.54688 11.1562ZM1.375 14.625L3.94531 13.9844C3.89323 13.7448 3.8099 13.5182 3.69531 13.3047C3.58073 13.0911 3.4375 12.901 3.26562 12.7344C3.09375 12.5677 2.90365 12.4271 2.69531 12.3125C2.48698 12.1979 2.26042 12.112 2.01562 12.0547L1.375 14.625ZM14 4.28906C14.1302 4.15885 14.2552 4.03646 14.375 3.92188C14.4948 3.80729 14.6016 3.6875 14.6953 3.5625C14.7891 3.4375 14.862 3.29948 14.9141 3.14844C14.9661 2.9974 14.9948 2.82292 15 2.625C15 2.40104 14.9583 2.19271 14.875 2C14.7917 1.80729 14.6745 1.63542 14.5234 1.48438C14.3724 1.33333 14.2005 1.21615 14.0078 1.13281C13.8151 1.04948 13.6042 1.00521 13.375 1C13.1771 1 13.0052 1.02604 12.8594 1.07812C12.7135 1.13021 12.5755 1.20573 12.4453 1.30469C12.3151 1.40365 12.1927 1.51042 12.0781 1.625C11.9635 1.73958 11.8411 1.86458 11.7109 2L14 4.28906Z"
           />
    </symbol>

    <symbol id="excel" viewBox="0 0 16 16">
      <path id="Vector"
            d="M16 3.71093V14.9999C16 15.1406 15.974 15.2708 15.9219 15.3906C15.8698 15.5103 15.7995 15.6145 15.7109 15.7031C15.6224 15.7916 15.5156 15.8645 15.3906 15.9218C15.2656 15.9791 15.1354 16.0051 15 15.9999H5C4.85938 15.9999 4.72917 15.9739 4.60938 15.9218C4.48958 15.8697 4.38542 15.7994 4.29688 15.7109C4.20833 15.6223 4.13542 15.5156 4.07812 15.3906C4.02083 15.2656 3.99479 15.1353 4 14.9999V12.9999H0.898438C0.773438 12.9999 0.658854 12.9765 0.554688 12.9296C0.450521 12.8828 0.354167 12.8177 0.265625 12.7343C0.177083 12.651 0.111979 12.5572 0.0703125 12.4531C0.0286458 12.3489 0.00520833 12.2317 0 12.1015V4.89842C0 4.77342 0.0234375 4.65884 0.0703125 4.55467C0.117188 4.45051 0.182292 4.35415 0.265625 4.26561C0.348958 4.17707 0.442708 4.11197 0.546875 4.0703C0.651042 4.02864 0.768229 4.0052 0.898438 3.99999H4V1.00001C4 0.859381 4.02604 0.729173 4.07812 0.609382C4.13021 0.489591 4.20052 0.385425 4.28906 0.296884C4.3776 0.208342 4.48438 0.135426 4.60938 0.0781348C4.73438 0.0208434 4.86458 -0.00519814 5 1.01693e-05H12.2891C12.4245 1.01693e-05 12.5521 0.0234475 12.6719 0.0703223C12.7917 0.117197 12.901 0.190113 13 0.289071L15.7109 2.99999C15.8047 3.09374 15.875 3.20051 15.9219 3.32031C15.9688 3.4401 15.9948 3.5703 16 3.71093ZM13 1.71094V2.99999H14.2891L13 1.71094ZM2.03906 11.125H3.51562C3.52604 11.1041 3.55729 11.0442 3.60938 10.9453C3.66146 10.8463 3.72656 10.7291 3.80469 10.5937C3.88281 10.4583 3.95833 10.3151 4.03125 10.164C4.10417 10.013 4.17969 9.87496 4.25781 9.74996C4.33594 9.62496 4.39583 9.51819 4.4375 9.42965C4.47917 9.34111 4.50521 9.29684 4.51562 9.29684C4.65625 9.60413 4.8125 9.91142 4.98438 10.2187C5.15625 10.526 5.32552 10.8281 5.49219 11.125H6.95312L5.32031 8.47653L6.92188 5.87498H5.52344C5.36198 6.17185 5.20573 6.46873 5.05469 6.7656C4.90365 7.06247 4.73958 7.35414 4.5625 7.6406C4.41146 7.34372 4.26302 7.04945 4.11719 6.75779C3.97135 6.46612 3.82292 6.17185 3.67188 5.87498H2.17969L3.73438 8.49215L2.03906 11.125ZM5 14.9999H15V3.99999H13C12.8594 3.99999 12.7292 3.97395 12.6094 3.92187C12.4896 3.86978 12.3854 3.79947 12.2969 3.71093C12.2083 3.62239 12.1354 3.51562 12.0781 3.39062C12.0208 3.26562 11.9948 3.13541 12 2.99999V1.00001H5V3.99999H8.10156C8.22656 3.99999 8.34115 4.02343 8.44531 4.0703C8.54948 4.11718 8.64583 4.18228 8.73438 4.26561C8.82292 4.34895 8.88802 4.4427 8.92969 4.54686C8.97135 4.65103 8.99479 4.76821 9 4.89842V12.1015C9 12.2265 8.97656 12.3411 8.92969 12.4453C8.88281 12.5494 8.81771 12.6458 8.73438 12.7343C8.65104 12.8229 8.55729 12.888 8.45312 12.9296C8.34896 12.9713 8.23177 12.9947 8.10156 12.9999H5V14.9999ZM10 6.99997V5.99998H14V6.99997H10ZM10 8.99996V7.99997H14V8.99996H10ZM10 11V9.99996H14V11H10Z"
           />
    </symbol>

    <symbol id="eye" viewBox="0 0 16 16">
      <path
        d="M0.989558 9.60214C1.67301 6.32689 4.52484 4 7.73048 4C10.9361 4 13.7879 6.32688 14.4714 9.60215C14.5278 9.87246 14.7927 10.0459 15.063 9.98946C15.3333 9.93304 15.5067 9.66817 15.4503 9.39785C14.673 5.67312 11.4239 3 7.73048 3C4.03707 3 0.78789 5.67311 0.0106435 9.39786C-0.0457642 9.66818 0.127646 9.93305 0.397965 9.98946C0.668285 10.0459 0.93315 9.87246 0.989558 9.60214Z"
       />
      <path
        d="M7.73047 6C5.79747 6 4.23047 7.567 4.23047 9.5C4.23047 11.433 5.79747 13 7.73047 13C9.66347 13 11.2305 11.433 11.2305 9.5C11.2305 7.567 9.66347 6 7.73047 6ZM5.23047 9.5C5.23047 8.11929 6.34976 7 7.73047 7C9.11118 7 10.2305 8.11929 10.2305 9.5C10.2305 10.8807 9.11118 12 7.73047 12C6.34976 12 5.23047 10.8807 5.23047 9.5Z"
       />
    </symbol>

    <symbol id="filter" viewBox="0 0 16 16">
      <path id="Vector" d="M16 1V2.71094L10 8.71094V15H6V8.71094L0 2.71094V1H16ZM15 2H1V2.28906L7 8.28906V14H9V8.28906L15 2.28906V2Z"/>
    </symbol>

    <symbol id="folder" viewBox="0 0 16 16">
      <path id="Vector" d="M4.75 2.00001C4.98438 2.00001 5.1849 2.02345 5.35156 2.07032C5.51823 2.1172 5.66927 2.1797 5.80469 2.25782C5.9401 2.33595 6.0599 2.41668 6.16406 2.50001C6.26823 2.58335 6.3724 2.66408 6.47656 2.7422C6.58073 2.82033 6.69531 2.88022 6.82031 2.92189C6.94531 2.96356 7.08854 2.9896 7.25 3.00001H15C15.1406 3.00001 15.2708 3.02606 15.3906 3.07814C15.5104 3.13022 15.6146 3.20054 15.7031 3.28908C15.7917 3.37762 15.8646 3.48439 15.9219 3.60939C15.9792 3.73439 16.0052 3.8646 16 4.00002V14.0001H0V3.00001C0 2.85939 0.0260417 2.72918 0.078125 2.60939C0.130208 2.4896 0.200521 2.38543 0.289062 2.29689C0.377604 2.20834 0.484375 2.13543 0.609375 2.07814C0.734375 2.02084 0.864583 1.9948 1 2.00001H4.75ZM1 3.00001V4.00002H4.75C4.875 4.00002 4.98438 3.9896 5.07812 3.96877C5.17188 3.94793 5.25781 3.91408 5.33594 3.8672C5.41406 3.82033 5.48958 3.76825 5.5625 3.71095C5.63542 3.65366 5.71875 3.58335 5.8125 3.50002C5.72396 3.42189 5.64323 3.35418 5.57031 3.29689C5.4974 3.2396 5.41927 3.18751 5.33594 3.14064C5.2526 3.09376 5.16667 3.05991 5.07812 3.03908C4.98958 3.01824 4.88021 3.00522 4.75 3.00001H1ZM15 4.00002H7.25C7.08854 4.00002 6.94792 4.02346 6.82812 4.07033C6.70833 4.11721 6.59375 4.17971 6.48438 4.25783C6.375 4.33596 6.26823 4.41669 6.16406 4.50002C6.0599 4.58335 5.94271 4.66408 5.8125 4.74221C5.68229 4.82033 5.53125 4.88023 5.35938 4.9219C5.1875 4.96356 4.98438 4.9896 4.75 5.00002H1V13.0001H15V4.00002Z" fill="#2B2D38"/>
    </symbol>

    <symbol id="layers" viewBox="0 0 16 16">
      <path id="Vector" d="M13 6.5L16 8L13 9.5L16 11L8 15L0 11L3 9.5L0 8L3 6.5L0 5L8 1L16 5L13 6.5ZM2.23438 5L8 7.88281L13.7656 5L8 2.11719L2.23438 5ZM13.7656 11L11.8828 10.0625L8 12L4.11719 10.0625L2.23438 11L8 13.8828L13.7656 11ZM8 10.8828L13.7656 8L11.8828 7.0625L8 9L4.11719 7.0625L2.23438 8L8 10.8828Z"/>
    </symbol>


    <symbol id="layersLines" viewBox="0 0 16 16">
      <path id="Vector" d="M7 4H0V3H7V4ZM3 6H10V7H3V6ZM11 6H16V7H11V6ZM16 3V4H8V3H16ZM3 9H13V10H3V9ZM0 12H10V13H0V12Z"/>
    </symbol>

    <symbol id="list" viewBox="0 0 16 16">
      <path id="Vector" d="M1.0252e-05 8.88888H1.77779V7.11111H1.0252e-05V8.88888ZM0 13.2778H1.77778V11.5H0V13.2778ZM1.0252e-05 4.49999H1.77779V2.72221H1.0252e-05V4.49999ZM3.55557 8.88888H16V7.11111H3.55557V8.88888ZM3.55556 13.2778H16V11.5H3.55556V13.2778ZM3.55557 2.72221V4.49999H16V2.72221H3.55557Z"/>
    </symbol>

    <symbol id="map" viewBox="0 0 16 16">
      <path id="Vector" d="M10.5 3.32812L16 1.5V12.5469L10.5 14.3828L5.5 12.7188L0 14.5469V3.5L5.5 1.66406L10.5 3.32812ZM6 2.88281V11.8281L10 13.1641V4.21875L6 2.88281ZM1 4.21875V13.1641L5 11.8281V2.88281L1 4.21875ZM15 11.8281V2.88281L11 4.21875V13.1641L15 11.8281Z"/>
    </symbol>

    <symbol id="menu" viewBox="0 0 16 16">
      <path id="Vector" d="M16 4.5H0V3.5H16V4.5ZM16 12.5H0V11.5H16V12.5ZM16 8.49219H0V7.5H16V8.49219Z"/>
    </symbol>

    <symbol id="moreVertical" viewBox="0 0 16 16">
      <path id="Vector" d="M8.00003 13C8.14065 13 8.27085 13.0261 8.39064 13.0782C8.51043 13.1302 8.6146 13.2005 8.70314 13.2891C8.79168 13.3776 8.8646 13.4844 8.92189 13.6094C8.97918 13.7344 9.00522 13.8646 9.00001 14C9.00001 14.1407 8.97397 14.2709 8.92189 14.3907C8.8698 14.5104 8.79949 14.6146 8.71095 14.7032C8.62241 14.7917 8.51564 14.8646 8.39064 14.9219C8.26565 14.9792 8.13544 15.0052 8.00003 15C7.8594 15 7.7292 14.974 7.60941 14.9219C7.48962 14.8698 7.38545 14.7995 7.29691 14.711C7.20837 14.6224 7.13546 14.5157 7.07816 14.3907C7.02087 14.2657 6.99483 14.1354 7.00004 14C7.00004 13.8594 7.02608 13.7292 7.07816 13.6094C7.13025 13.4896 7.20056 13.3854 7.2891 13.2969C7.37764 13.2084 7.48441 13.1354 7.60941 13.0782C7.7344 13.0209 7.86461 12.9948 8.00003 13ZM8.00003 7.00001C8.14065 7.00001 8.27085 7.02605 8.39064 7.07814C8.51043 7.13022 8.6146 7.20053 8.70314 7.28907C8.79168 7.37762 8.8646 7.48439 8.92189 7.60939C8.97918 7.73439 9.00522 7.8646 9.00001 8.00001C9.00001 8.14064 8.97397 8.27085 8.92189 8.39064C8.8698 8.51043 8.79949 8.6146 8.71095 8.70314C8.62241 8.79168 8.51564 8.8646 8.39064 8.92189C8.26565 8.97918 8.13544 9.00523 8.00003 9.00002C7.8594 9.00002 7.7292 8.97398 7.60941 8.92189C7.48962 8.86981 7.38545 8.7995 7.29691 8.71095C7.20837 8.62241 7.13546 8.51564 7.07816 8.39064C7.02087 8.26564 6.99483 8.13543 7.00004 8.00001C7.00004 7.85939 7.02608 7.72918 7.07816 7.60939C7.13025 7.4896 7.20056 7.38543 7.2891 7.29689C7.37764 7.20834 7.48441 7.13543 7.60941 7.07814C7.7344 7.02084 7.86461 6.9948 8.00003 7.00001ZM8.00003 3C7.8594 3 7.7292 2.97396 7.60941 2.92188C7.48962 2.86979 7.38545 2.79948 7.29691 2.71094C7.20837 2.6224 7.13546 2.51562 7.07816 2.39062C7.02087 2.26562 6.99483 2.13541 7.00004 2C7.00004 1.85937 7.02608 1.72916 7.07816 1.60937C7.13025 1.48958 7.20056 1.38541 7.2891 1.29687C7.37764 1.20833 7.48441 1.13541 7.60941 1.07812C7.7344 1.02083 7.86461 0.994787 8.00003 0.999995C8.14065 0.999995 8.27085 1.02604 8.39064 1.07812C8.51043 1.1302 8.6146 1.20052 8.70314 1.28906C8.79168 1.3776 8.8646 1.48437 8.92189 1.60937C8.97918 1.73437 9.00522 1.86458 9.00001 2C9.00001 2.14062 8.97397 2.27083 8.92189 2.39062C8.8698 2.51042 8.79949 2.61458 8.71095 2.70312C8.62241 2.79167 8.51564 2.86458 8.39064 2.92188C8.26565 2.97917 8.13544 3.00521 8.00003 3Z"/>
    </symbol>

    <symbol id="paste" viewBox="0 0 16 16" clip-path="url(#clip0)">
      <path id="Vector" d="M15 6V16H7V15H1V2H5C5 1.72917 5.05208 1.47135 5.15625 1.22656C5.26042 0.981771 5.40365 0.770833 5.58594 0.59375C5.76823 0.416667 5.97917 0.273438 6.21875 0.164062C6.45833 0.0546875 6.71875 0 7 0C7.27083 0 7.52865 0.0520833 7.77344 0.15625C8.01823 0.260417 8.22917 0.403646 8.40625 0.585938C8.58333 0.768229 8.72656 0.981771 8.83594 1.22656C8.94531 1.47135 9 1.72917 9 2H13V6H15ZM4 3V4H10V3H8V2.74219C8 2.65365 8.0026 2.5599 8.00781 2.46094C8.00781 2.28385 8 2.10938 7.98438 1.9375C7.96875 1.76562 7.92448 1.60938 7.85156 1.46875C7.77865 1.32812 7.67708 1.21615 7.54688 1.13281C7.41667 1.04948 7.23438 1.00521 7 1C6.77083 1 6.59115 1.04167 6.46094 1.125C6.33073 1.20833 6.22917 1.32031 6.15625 1.46094C6.08333 1.60156 6.03906 1.75781 6.02344 1.92969C6.00781 2.10156 5.9974 2.27865 5.99219 2.46094V2.73438C5.99219 2.82292 5.99479 2.91146 6 3H4ZM7 14V6H12V3H11V5H3V3H2V14H7ZM14 7H8V15H14V7Z"/>
    </symbol>

    <symbol id="pdf" viewBox="0 0 16 16" clip-path="url(#clip0)">
      <path id="Vector" d="M15.5 12C15.5 12.5523 15.0523 13 14.5 13V15C14.5 15.5523 14.0523 16 13.5 16H2.5C1.94772 16 1.5 15.5523 1.5 15V13C0.947715 13 0.5 12.5523 0.5 12V6C0.5 5.44772 0.947715 5 1.5 5V1C1.5 0.447715 1.94772 0 2.5 0H10.7967C11.0619 0 11.3163 0.105357 11.5038 0.292893L14.2071 2.99617C14.3946 3.18371 14.5 3.43806 14.5 3.70328V5C15.0523 5 15.5 5.44772 15.5 6V12ZM11.5 3H12.7891L11.5 1.71094V3ZM2.5 5H13.5V4H11.5C10.9477 4 10.5 3.55228 10.5 3V1H2.5V5ZM13.5 13H2.5V15H13.5V13ZM14.5 6H1.5V12H14.5V6ZM4 7C4.20833 7 4.40365 7.03906 4.58594 7.11719C4.76823 7.19531 4.92708 7.30208 5.0625 7.4375C5.19792 7.57292 5.30469 7.73177 5.38281 7.91406C5.46094 8.09635 5.5 8.29167 5.5 8.5C5.5 8.70833 5.46094 8.90365 5.38281 9.08594C5.30469 9.26823 5.19792 9.42708 5.0625 9.5625C4.92708 9.69792 4.76823 9.80469 4.58594 9.88281C4.40365 9.96094 4.20833 10 4 10H3.5V11H2.5V7H4ZM4 9C4.13542 9 4.2526 8.95052 4.35156 8.85156C4.45052 8.7526 4.5 8.63542 4.5 8.5C4.5 8.36458 4.45052 8.2474 4.35156 8.14844C4.2526 8.04948 4.13542 8 4 8H3.5V9H4ZM7.5 7C7.77604 7 8.03385 7.05208 8.27344 7.15625C8.51302 7.26042 8.72656 7.40365 8.91406 7.58594C9.10156 7.76823 9.24479 7.97917 9.34375 8.21875C9.44271 8.45833 9.49479 8.71875 9.5 9C9.5 9.27604 9.44792 9.53385 9.34375 9.77344C9.23958 10.013 9.09635 10.2266 8.91406 10.4141C8.73177 10.6016 8.52083 10.7448 8.28125 10.8438C8.04167 10.9427 7.78125 10.9948 7.5 11H6.5V7H7.5ZM7.5 10C7.64062 10 7.77083 9.97396 7.89062 9.92188C8.01042 9.86979 8.11458 9.79948 8.20312 9.71094C8.29167 9.6224 8.36458 9.51562 8.42188 9.39062C8.47917 9.26562 8.50521 9.13542 8.5 9C8.5 8.85938 8.47396 8.72917 8.42188 8.60938C8.36979 8.48958 8.29948 8.38542 8.21094 8.29688C8.1224 8.20833 8.01562 8.13542 7.89062 8.07812C7.76562 8.02083 7.63542 7.99479 7.5 8V10ZM10.5 7H13V8H11.5V9H13V10H11.5V11H10.5V7Z"/>
    </symbol>

    <symbol id="pin" viewBox="0 0 16 16">
      <path id="Vector" d="M15.7321 5.78247C15.5603 5.95435 15.3936 6.1106 15.2321 6.25122C15.0707 6.39185 14.9014 6.51424 14.7243 6.61841C14.5472 6.72257 14.3571 6.7981 14.154 6.84497C13.9509 6.89185 13.7165 6.92049 13.4509 6.93091C13.2738 6.93091 13.1045 6.91528 12.9431 6.88403L9.98213 9.84497C10.0498 10.0429 10.0993 10.246 10.1306 10.4543C10.1618 10.6627 10.1774 10.871 10.1774 11.0793C10.1774 11.4179 10.1436 11.7252 10.0759 12.0012C10.0082 12.2773 9.91182 12.5377 9.78682 12.7825C9.66182 13.0273 9.50557 13.259 9.31807 13.4778C9.13057 13.6965 8.92484 13.9231 8.70088 14.1575L5.68526 11.1418L1.24776 15.5872L0.185257 15.9387L0.536819 14.8762L4.98213 10.4387L1.96651 7.4231L2.31807 7.07153C2.68265 6.70695 3.09932 6.4283 3.56807 6.2356C4.03682 6.04289 4.53161 5.94653 5.05244 5.94653C5.47953 5.94653 5.88838 6.01164 6.27901 6.14185L9.23994 3.18091C9.20869 3.01945 9.19307 2.85018 9.19307 2.6731C9.19307 2.41789 9.21911 2.18872 9.27119 1.9856C9.32328 1.78247 9.4014 1.58976 9.50557 1.40747C9.60974 1.22518 9.72953 1.05591 9.86494 0.899658C10.0004 0.743408 10.1592 0.574137 10.3415 0.391846L15.7321 5.78247ZM13.4509 5.93091C13.7373 5.93091 14.0082 5.8632 14.2634 5.72778L10.3962 1.8606C10.2608 2.1158 10.1931 2.38664 10.1931 2.6731C10.1931 2.81893 10.2087 2.95435 10.2399 3.07935C10.2712 3.20435 10.3103 3.33716 10.3571 3.47778L6.51338 7.31372C6.38317 7.26164 6.26078 7.21216 6.14619 7.16528C6.03161 7.11841 5.91703 7.07935 5.80244 7.0481C5.68786 7.01685 5.57067 6.99341 5.45088 6.97778C5.33109 6.96216 5.19828 6.95174 5.05244 6.94653C4.75557 6.94653 4.46911 6.9882 4.19307 7.07153C3.91703 7.15487 3.65661 7.28247 3.41182 7.45435L8.66963 12.7122C8.8363 12.4726 8.9639 12.2148 9.05244 11.9387C9.14099 11.6627 9.18526 11.3762 9.18526 11.0793C9.18526 10.9387 9.17744 10.8085 9.16182 10.6887C9.14619 10.5689 9.12015 10.4491 9.08369 10.3293C9.04724 10.2096 9.00557 10.0924 8.95869 9.97778C8.91182 9.8632 8.86234 9.7408 8.81026 9.6106L12.6462 5.76685C12.7816 5.80851 12.9118 5.84497 13.0368 5.87622C13.1618 5.90747 13.2998 5.9257 13.4509 5.93091Z"/>
    </symbol>


    <symbol id="plusBox" viewBox="0 0 16 16">
      <path id="Vector" d="M14.2222 0H1.77778C0.791111 0 0 0.8 0 1.77778V14.2222C0 15.2 0.791111 16 1.77778 16H14.2222C15.2 16 16 15.2 16 14.2222V1.77778C16 0.8 15.2 0 14.2222 0ZM12.4444 8.88889H8.88889V12.4444H7.11111V8.88889H3.55556V7.11111H7.11111V3.55556H8.88889V7.11111H12.4444V8.88889Z"/>
    </symbol>

    <symbol id="question" viewBox="0 0 16 16">
      <path id="Vector" d="M7.96873 0.499998C8.65623 0.499998 9.31768 0.58854 9.9531 0.765623C10.5885 0.942706 11.1823 1.19271 11.7343 1.51562C12.2864 1.83854 12.7916 2.22916 13.25 2.68749C13.7083 3.14582 14.0963 3.64843 14.414 4.1953C14.7317 4.74217 14.9843 5.33853 15.1718 5.98436C15.3593 6.63019 15.4479 7.29165 15.4375 7.96873C15.4375 8.65623 15.3489 9.31768 15.1718 9.9531C14.9948 10.5885 14.7448 11.1823 14.4218 11.7343C14.0989 12.2864 13.7083 12.7916 13.25 13.25C12.7916 13.7083 12.289 14.0963 11.7422 14.414C11.1953 14.7317 10.5989 14.9843 9.9531 15.1718C9.30727 15.3593 8.64581 15.4479 7.96873 15.4375C7.28123 15.4375 6.61977 15.3489 5.98436 15.1718C5.34894 14.9948 4.7552 14.7448 4.20311 14.4218C3.65103 14.0989 3.14582 13.7083 2.68749 13.25C2.22916 12.7916 1.84114 12.289 1.52343 11.7422C1.20573 11.1953 0.953122 10.5989 0.765623 9.9531C0.578123 9.30727 0.489582 8.64581 0.499998 7.96873C0.499998 7.28123 0.58854 6.61977 0.765623 5.98436C0.942706 5.34894 1.19271 4.7552 1.51562 4.20311C1.83854 3.65103 2.22916 3.14582 2.68749 2.68749C3.14582 2.22916 3.64843 1.84114 4.1953 1.52343C4.74217 1.20573 5.33853 0.953122 5.98436 0.765623C6.63019 0.578123 7.29165 0.489582 7.96873 0.499998ZM7.96873 14.5C8.56769 14.5 9.14581 14.4218 9.7031 14.2656C10.2604 14.1093 10.7812 13.8906 11.2656 13.6093C11.75 13.3281 12.1901 12.9869 12.5859 12.5859C12.9817 12.1849 13.3203 11.7448 13.6015 11.2656C13.8828 10.7864 14.1041 10.2656 14.2656 9.7031C14.427 9.1406 14.5052 8.56248 14.5 7.96873C14.5 7.36977 14.4218 6.79165 14.2656 6.23436C14.1093 5.67707 13.8906 5.15624 13.6093 4.67186C13.3281 4.18749 12.9869 3.74739 12.5859 3.35155C12.1849 2.95572 11.7448 2.61718 11.2656 2.33593C10.7864 2.05468 10.2656 1.83333 9.7031 1.67187C9.1406 1.51041 8.56248 1.43229 7.96873 1.4375C7.36977 1.4375 6.79165 1.51562 6.23436 1.67187C5.67707 1.82812 5.15624 2.04687 4.67186 2.32812C4.18749 2.60937 3.74739 2.95051 3.35155 3.35155C2.95572 3.75259 2.61718 4.1927 2.33593 4.67186C2.05468 5.15103 1.83333 5.67186 1.67187 6.23436C1.51041 6.79686 1.43229 7.37498 1.4375 7.96873C1.4375 8.56769 1.51562 9.14581 1.67187 9.7031C1.82812 10.2604 2.04687 10.7812 2.32812 11.2656C2.60937 11.75 2.95051 12.1901 3.35155 12.5859C3.75259 12.9817 4.1927 13.3203 4.67186 13.6015C5.15103 13.8828 5.67186 14.1041 6.23436 14.2656C6.79686 14.427 7.37498 14.5052 7.96873 14.5ZM7.46873 11.4687H8.46873V12.4687H7.46873V11.4687ZM7.96873 3.96874C8.31248 3.96874 8.63539 4.03384 8.93748 4.16405C9.23956 4.29426 9.50258 4.47395 9.72654 4.70311C9.95049 4.93228 10.1302 5.1979 10.2656 5.49999C10.401 5.80207 10.4687 6.12498 10.4687 6.46873C10.4687 6.78123 10.4192 7.05206 10.3203 7.28123C10.2213 7.5104 10.0989 7.72133 9.9531 7.91404C9.80727 8.10675 9.64581 8.27602 9.46872 8.42185C9.29164 8.56769 9.13279 8.72133 8.99216 8.88279C8.85154 9.04425 8.72654 9.20831 8.61716 9.37498C8.50779 9.54164 8.45831 9.73956 8.46873 9.96872V10.4687H7.46873V9.96872C7.46873 9.65622 7.51821 9.38539 7.61717 9.15623C7.71613 8.92706 7.83852 8.71612 7.98435 8.52341C8.13019 8.33071 8.29164 8.16144 8.46873 8.0156C8.64581 7.86977 8.80466 7.71613 8.94529 7.55467C9.08591 7.39321 9.21091 7.22915 9.32029 7.06248C9.42966 6.89582 9.47914 6.6979 9.46872 6.46873C9.46872 6.2604 9.42966 6.06509 9.35154 5.8828C9.27341 5.70051 9.16664 5.54165 9.03123 5.40624C8.89581 5.27082 8.73696 5.16405 8.55466 5.08592C8.37237 5.0078 8.17706 4.96874 7.96873 4.96874C7.7604 4.96874 7.56508 5.0078 7.38279 5.08592C7.2005 5.16405 7.04165 5.27082 6.90623 5.40624C6.77082 5.54165 6.66405 5.70051 6.58592 5.8828C6.5078 6.06509 6.46873 6.2604 6.46873 6.46873H5.46874C5.46874 6.12498 5.53384 5.80207 5.66405 5.49999C5.79426 5.1979 5.97134 4.93488 6.1953 4.71093C6.41925 4.48697 6.68488 4.30728 6.99217 4.17186C7.29946 4.03645 7.62498 3.96874 7.96873 3.96874Z"/>
    </symbol>

    <symbol id="radioboxOff" viewBox="0 0 16 16">
      <path id="Vector" d="M8 14.4C6.30261 14.4 4.67475 13.7257 3.47452 12.5255C2.27428 11.3253 1.6 9.69739 1.6 8C1.6 6.30261 2.27428 4.67475 3.47452 3.47452C4.67475 2.27428 6.30261 1.6 8 1.6C9.69739 1.6 11.3253 2.27428 12.5255 3.47452C13.7257 4.67475 14.4 6.30261 14.4 8C14.4 9.69739 13.7257 11.3253 12.5255 12.5255C11.3253 13.7257 9.69739 14.4 8 14.4ZM8 0C6.94943 0 5.90914 0.206926 4.93853 0.608964C3.96793 1.011 3.08601 1.60028 2.34315 2.34315C0.842855 3.84344 0 5.87827 0 8C0 10.1217 0.842855 12.1566 2.34315 13.6569C3.08601 14.3997 3.96793 14.989 4.93853 15.391C5.90914 15.7931 6.94943 16 8 16C10.1217 16 12.1566 15.1571 13.6569 13.6569C15.1571 12.1566 16 10.1217 16 8C16 6.94943 15.7931 5.90914 15.391 4.93853C14.989 3.96793 14.3997 3.08601 13.6569 2.34315C12.914 1.60028 12.0321 1.011 11.0615 0.608964C10.0909 0.206926 9.05058 0 8 0Z"/>
    </symbol>

    <symbol id="radioboxOn" viewBox="0 0 16 16">
      <path id="Vector" d="M8 14.4C6.30261 14.4 4.67475 13.7257 3.47452 12.5255C2.27428 11.3253 1.6 9.69739 1.6 8C1.6 6.30261 2.27428 4.67475 3.47452 3.47452C4.67475 2.27428 6.30261 1.6 8 1.6C9.69739 1.6 11.3253 2.27428 12.5255 3.47452C13.7257 4.67475 14.4 6.30261 14.4 8C14.4 9.69739 13.7257 11.3253 12.5255 12.5255C11.3253 13.7257 9.69739 14.4 8 14.4ZM8 0C6.94943 0 5.90914 0.206926 4.93853 0.608964C3.96793 1.011 3.08601 1.60028 2.34315 2.34315C0.842855 3.84344 0 5.87827 0 8C0 10.1217 0.842855 12.1566 2.34315 13.6569C3.08601 14.3997 3.96793 14.989 4.93853 15.391C5.90914 15.7931 6.94943 16 8 16C10.1217 16 12.1566 15.1571 13.6569 13.6569C15.1571 12.1566 16 10.1217 16 8C16 6.94943 15.7931 5.90914 15.391 4.93853C14.989 3.96793 14.3997 3.08601 13.6569 2.34315C12.914 1.60028 12.0321 1.011 11.0615 0.608964C10.0909 0.206926 9.05058 0 8 0ZM8 4C6.93913 4 5.92172 4.42143 5.17157 5.17157C4.42143 5.92172 4 6.93913 4 8C4 9.06087 4.42143 10.0783 5.17157 10.8284C5.92172 11.5786 6.93913 12 8 12C9.06087 12 10.0783 11.5786 10.8284 10.8284C11.5786 10.0783 12 9.06087 12 8C12 6.93913 11.5786 5.92172 10.8284 5.17157C10.0783 4.42143 9.06087 4 8 4Z"/>
    </symbol>

    <symbol id="ring" viewBox="0 0 16 16">
      <path id="Vector" d="M14 12V13H10C10 13.276 9.94792 13.5339 9.84375 13.7734C9.73958 14.013 9.59635 14.2266 9.41406 14.4141C9.23177 14.6016 9.02083 14.7448 8.78125 14.8438C8.54167 14.9427 8.28125 14.9948 8 15C7.72396 15 7.46615 14.9479 7.22656 14.8438C6.98698 14.7396 6.77344 14.5964 6.58594 14.4141C6.39844 14.2318 6.25521 14.0208 6.15625 13.7812C6.05729 13.5417 6.00521 13.2812 6 13H2V12H3V6C3 5.54167 3.0599 5.09896 3.17969 4.67188C3.29948 4.24479 3.46615 3.84635 3.67969 3.47656C3.89323 3.10677 4.15365 2.77083 4.46094 2.46875C4.76823 2.16667 5.10677 1.90625 5.47656 1.6875C5.84635 1.46875 6.24479 1.29948 6.67188 1.17969C7.09896 1.0599 7.54167 1 8 1C8.45833 1 8.90104 1.0599 9.32812 1.17969C9.75521 1.29948 10.1536 1.46615 10.5234 1.67969C10.8932 1.89323 11.2292 2.15365 11.5312 2.46094C11.8333 2.76823 12.0938 3.10677 12.3125 3.47656C12.5312 3.84635 12.7005 4.24479 12.8203 4.67188C12.9401 5.09896 13 5.54167 13 6V12H14ZM12 12V6C12 5.44792 11.8958 4.92969 11.6875 4.44531C11.4792 3.96094 11.1927 3.53906 10.8281 3.17969C10.4635 2.82031 10.0391 2.53385 9.55469 2.32031C9.07031 2.10677 8.55208 2 8 2C7.44792 2 6.92969 2.10417 6.44531 2.3125C5.96094 2.52083 5.53906 2.80729 5.17969 3.17188C4.82031 3.53646 4.53385 3.96094 4.32031 4.44531C4.10677 4.92969 4 5.44792 4 6V12H12ZM8 14C8.14062 14 8.27083 13.974 8.39062 13.9219C8.51042 13.8698 8.61458 13.7995 8.70312 13.7109C8.79167 13.6224 8.86458 13.5156 8.92188 13.3906C8.97917 13.2656 9.00521 13.1354 9 13H7C7 13.1406 7.02604 13.2708 7.07812 13.3906C7.13021 13.5104 7.20052 13.6146 7.28906 13.7031C7.3776 13.7917 7.48438 13.8646 7.60938 13.9219C7.73438 13.9792 7.86458 14.0052 8 14Z"/>
    </symbol>

    <symbol id="save" viewBox="0 0 16 16">
      <path id="Vector" d="M13.9994 1.00065C14.14 1.00065 14.2702 1.02669 14.39 1.07877C14.5098 1.13085 14.6139 1.20116 14.7025 1.2897C14.791 1.37824 14.8639 1.485 14.9212 1.61C14.9785 1.73499 15.0046 1.86519 14.9993 2.0006V15H2.78898L1 13.2032V2.0006C1 1.85999 1.02604 1.72978 1.07812 1.61C1.1302 1.49021 1.20051 1.38605 1.28905 1.29751C1.37759 1.20897 1.48435 1.13606 1.60935 1.07877C1.73434 1.02148 1.86454 0.995443 1.99995 1.00065H13.9994ZM3.99986 7.00037H11.9995V2.0006H3.99986V7.00037ZM9.99958 11.0002H4.99981V14H5.99977V12.0001H6.99972V14H9.99958V11.0002ZM13.9994 2.0006H12.9994V8.00033H2.99991V2.0006H1.99995V12.7892L3.20302 14H3.99986V10.0002H10.9995V14H13.9994V2.0006Z"/>
    </symbol>

    <symbol id="search" viewBox="0 0 16 16">
      <path id="Vector" d="M5.5 0C4.99479 0 4.50781 0.0651042 4.03906 0.195312C3.57031 0.325521 3.13281 0.510417 2.72656 0.75C2.32031 0.989583 1.95052 1.27604 1.61719 1.60938C1.28385 1.94271 0.994792 2.3151 0.75 2.72656C0.505208 3.13802 0.320312 3.57552 0.195312 4.03906C0.0703125 4.5026 0.00520802 4.98958 0 5.5C0 6.00521 0.0651045 6.49219 0.195312 6.96094C0.325521 7.42969 0.510417 7.86719 0.75 8.27344C0.989583 8.67969 1.27604 9.04948 1.60938 9.38281C1.94271 9.71615 2.3151 10.0052 2.72656 10.25C3.13802 10.4948 3.57552 10.6797 4.03906 10.8047C4.5026 10.9297 4.98958 10.9948 5.5 11C6.15104 11 6.77344 10.8906 7.36719 10.6719C7.96094 10.4531 8.51042 10.138 9.01562 9.72656L15.1484 15.8516C15.2474 15.9505 15.3646 16 15.5 16C15.6354 16 15.7526 15.9505 15.8516 15.8516C15.9505 15.7526 16 15.6354 16 15.5C16 15.3646 15.9505 15.2474 15.8516 15.1484L9.72656 9.01562C10.138 8.51562 10.4531 7.96875 10.6719 7.375C10.8906 6.78125 11 6.15625 11 5.5C11 4.99479 10.9349 4.50781 10.8047 4.03906C10.6745 3.57031 10.4896 3.13281 10.25 2.72656C10.0104 2.32031 9.72396 1.95052 9.39062 1.61719C9.05729 1.28385 8.6849 0.994792 8.27344 0.75C7.86198 0.505208 7.42448 0.320312 6.96094 0.195312C6.4974 0.0703125 6.01042 0.00520833 5.5 0ZM5.5 10C4.88021 10 4.29688 9.88281 3.75 9.64844C3.20312 9.41406 2.72656 9.09115 2.32031 8.67969C1.91406 8.26823 1.59375 7.79167 1.35938 7.25C1.125 6.70833 1.00521 6.125 1 5.5C1 4.88021 1.11719 4.29688 1.35156 3.75C1.58594 3.20312 1.90885 2.72656 2.32031 2.32031C2.73177 1.91406 3.20833 1.59375 3.75 1.35938C4.29167 1.125 4.875 1.00521 5.5 1C6.11979 1 6.70312 1.11719 7.25 1.35156C7.79688 1.58594 8.27344 1.90885 8.67969 2.32031C9.08594 2.73177 9.40625 3.20833 9.64062 3.75C9.875 4.29167 9.99479 4.875 10 5.5C10 6.11979 9.88281 6.70312 9.64844 7.25C9.41406 7.79688 9.09115 8.27344 8.67969 8.67969C8.26823 9.08594 7.79167 9.40625 7.25 9.64062C6.70833 9.875 6.125 9.99479 5.5 10Z"/>
    </symbol>

    <symbol id="settings" viewBox="0 0 16 16">
      <path id="Vector" d="M8 1C7.42524 1 6.87106 1.0698 6.342 1.18799C6.23168 1.21271 6.13208 1.26974 6.05697 1.35117C5.98185 1.4326 5.93494 1.53443 5.9227 1.64258L5.80666 2.6584C5.76871 2.99128 5.56846 3.2858 5.26633 3.45342C4.96481 3.6207 4.59882 3.63923 4.27965 3.50469L3.30721 3.09385C3.20356 3.05005 3.08831 3.03823 2.97736 3.06003C2.86642 3.08182 2.76527 3.13616 2.68786 3.21553C1.93246 3.98886 1.3527 4.92527 1.02346 5.97041C0.990661 6.07443 0.992291 6.18567 1.02812 6.28876C1.06395 6.39186 1.13222 6.48174 1.2235 6.546L2.0856 7.15303C2.36711 7.35177 2.53267 7.66498 2.53267 8C2.53267 8.3352 2.36712 8.64867 2.0856 8.84697L1.2235 9.45332C1.13222 9.51758 1.06395 9.60746 1.02812 9.71056C0.992291 9.81365 0.990661 9.92488 1.02346 10.0289C1.35267 11.0739 1.93196 12.011 2.68786 12.7845C2.76535 12.8637 2.86655 12.9179 2.97748 12.9396C3.08842 12.9613 3.20363 12.9493 3.30721 12.9055L4.27894 12.4946C4.59826 12.3598 4.9646 12.3792 5.26633 12.5466C5.56846 12.7142 5.76871 13.0087 5.80666 13.3416L5.9227 14.3574C5.93503 14.4654 5.98191 14.567 6.05687 14.6483C6.13184 14.7295 6.2312 14.7865 6.34129 14.8113C6.87058 14.9299 7.42524 15 8 15C8.57476 15 9.12894 14.9302 9.658 14.812C9.76832 14.7873 9.86792 14.7303 9.94303 14.6488C10.0181 14.5674 10.0651 14.4656 10.0773 14.3574L10.1933 13.3416C10.2313 13.0087 10.4315 12.7142 10.7337 12.5466C11.0352 12.3793 11.4012 12.3601 11.7203 12.4946L12.6928 12.9055C12.7964 12.9493 12.9116 12.9613 13.0225 12.9396C13.1335 12.9179 13.2347 12.8637 13.3121 12.7845C14.0675 12.0111 14.6473 11.074 14.9765 10.0289C15.0093 9.92488 15.0077 9.81365 14.9719 9.71056C14.936 9.60746 14.8678 9.51758 14.7765 9.45332L13.9144 8.84697C13.6329 8.64867 13.4673 8.3352 13.4673 8C13.4673 7.6648 13.6329 7.35133 13.9144 7.15303L14.7765 6.54668C14.8678 6.48242 14.936 6.39254 14.9719 6.28944C15.0077 6.18635 15.0093 6.07512 14.9765 5.97109C14.6473 4.92596 14.0675 3.98886 13.3121 3.21553C13.2347 3.13627 13.1335 3.08207 13.0225 3.0604C12.9116 3.03872 12.7964 3.05065 12.6928 3.09453L11.7203 3.50537C11.4012 3.63992 11.0352 3.6207 10.7337 3.45342C10.4315 3.2858 10.2313 2.99128 10.1933 2.6584L10.0773 1.64258C10.065 1.53464 10.0181 1.43303 9.94313 1.35174C9.86816 1.27045 9.76879 1.21348 9.65871 1.18867C9.12941 1.07005 8.57476 1 8 1ZM8 2.05C8.35512 2.05 8.69614 2.11121 9.03794 2.16895L9.10628 2.77256C9.18205 3.43718 9.5844 4.02832 10.1869 4.3626C10.7899 4.6971 11.5239 4.73555 12.161 4.4665L12.7391 4.22246C13.183 4.73429 13.5344 5.31241 13.7799 5.9458L13.2673 6.30674C12.7061 6.70204 12.3739 7.3314 12.3739 8C12.3739 8.6686 12.7061 9.29796 13.2673 9.69326L13.7799 10.0542C13.5344 10.6876 13.183 11.2657 12.7391 11.7775L12.161 11.5335C11.5239 11.2644 10.7899 11.3029 10.1869 11.6374C9.5844 11.9717 9.18205 12.5628 9.10628 13.2274L9.03794 13.8311C8.69617 13.8886 8.35494 13.95 8 13.95C7.64488 13.95 7.30385 13.8888 6.96206 13.8311L6.89372 13.2274C6.81795 12.5628 6.4156 11.9717 5.81307 11.6374C5.21014 11.3029 4.47609 11.2644 3.83899 11.5335L3.26093 11.7775C2.81696 11.2658 2.46558 10.6876 2.22015 10.0542L2.73271 9.69326C3.29389 9.29796 3.62613 8.6686 3.62613 8C3.62613 7.3314 3.29362 6.70163 2.73271 6.30605L2.22015 5.94512C2.46572 5.31149 2.8175 4.73374 3.26165 4.22178L3.83899 4.46582C4.47609 4.73487 5.21014 4.6971 5.81307 4.3626C6.4156 4.02832 6.81795 3.43718 6.89372 2.77256L6.96206 2.16895C7.30383 2.11137 7.64505 2.05 8 2.05ZM8 5.2C6.39606 5.2 5.08409 6.45982 5.08409 8C5.08409 9.54018 6.39606 10.8 8 10.8C9.60394 10.8 10.9159 9.54018 10.9159 8C10.9159 6.45982 9.60394 5.2 8 5.2ZM8 6.25C9.01298 6.25 9.82244 7.02728 9.82244 8C9.82244 8.97272 9.01298 9.75 8 9.75C6.98701 9.75 6.17756 8.97272 6.17756 8C6.17756 7.02728 6.98701 6.25 8 6.25Z"/>
    </symbol>

    <symbol id="table" viewBox="0 0 16 16">
      <path id="Vector" d="M0 9.85716H3.76471V6.14287H0V9.85716ZM0 14.5H3.76471V10.7857H0V14.5ZM0 5.2143H3.76471V1.50002H0V5.2143ZM4.70588 9.85716H16V6.14287H4.70588V9.85716ZM4.70588 14.5H16V10.7857H4.70588V14.5ZM4.70588 1.50002V5.2143H16V1.50002H4.70588Z"/>
    </symbol>

    <symbol id="tick" viewBox="0 0 16 16">
      <path id="Vector" d="M14.3516 4.35156L6 12.7109L1.64844 8.35156L2.35156 7.64844L6 11.2891L13.6484 3.64844L14.3516 4.35156Z"/>
    </symbol>

    <symbol id="tubes" viewBox="0 0 16 16">
      <path id="Subtract" fill-rule="evenodd" clip-rule="evenodd" d="M11 9H15V8H16V16H15V15H7.5C6.83696 15 6.20107 14.7366 5.73223 14.2678C5.26339 13.7989 5 13.163 5 12.5V7H1V8H0V0H1V1H8.5C9.16304 1 9.79893 1.26339 10.2678 1.73223C10.7366 2.20107 11 2.83696 11 3.5V9ZM1 6H6V12.5C6 12.8978 6.15804 13.2794 6.43934 13.5607C6.72064 13.842 7.10218 14 7.5 14H15V10H10V3.5C10 3.10218 9.84196 2.72064 9.56066 2.43934C9.27936 2.15804 8.89782 2 8.5 2H1V6Z"/>
    </symbol>

    <symbol id="undo" viewBox="0 0 16 16">
      <path id="Vector" d="M8.5 0.03125C9 0.03125 9.48177 0.0963542 9.94531 0.226562C10.4089 0.356771 10.8438 0.541667 11.25 0.78125C11.6562 1.02083 12.026 1.30729 12.3594 1.64062C12.6927 1.97396 12.9792 2.34375 13.2188 2.75C13.4583 3.15625 13.6432 3.59115 13.7734 4.05469C13.9036 4.51823 13.9688 5 13.9688 5.5C13.9688 6.21354 13.8333 6.90104 13.5625 7.5625C13.2917 8.22396 12.901 8.8099 12.3906 9.32031L5.85156 15.8516L5.14844 15.1484L11.6797 8.60938C12.0911 8.19792 12.4089 7.72396 12.6328 7.1875C12.8568 6.65104 12.9688 6.08854 12.9688 5.5C12.9688 4.89062 12.8516 4.3151 12.6172 3.77344C12.3828 3.23177 12.0599 2.75781 11.6484 2.35156C11.237 1.94531 10.763 1.625 10.2266 1.39062C9.6901 1.15625 9.11458 1.03646 8.5 1.03125C7.9375 1.03125 7.44271 1.11458 7.01562 1.28125C6.58854 1.44792 6.1901 1.67188 5.82031 1.95312C5.45052 2.23438 5.10156 2.55208 4.77344 2.90625C4.44531 3.26042 4.09115 3.625 3.71094 4H7V5H2V0H3V3.28906C3.28646 2.9974 3.5599 2.71615 3.82031 2.44531C4.08073 2.17448 4.34375 1.91667 4.60938 1.67188C4.875 1.42708 5.14323 1.20573 5.41406 1.00781C5.6849 0.809896 5.97656 0.638021 6.28906 0.492188C6.60156 0.346354 6.9375 0.234375 7.29688 0.15625C7.65625 0.078125 8.05729 0.0364583 8.5 0.03125Z"/>
    </symbol>

    <symbol id="upload" viewBox="0 0 16 16">
      <path id="Vector" d="M12.6377 0V1H3.36232V0H12.6377ZM13 7.64844L12.2754 8.35156L8.5153 4.67969V16H7.4847V4.67969L3.72464 8.35156L3 7.64844L8 2.75781L13 7.64844Z"/>
    </symbol>

    <symbol id="user" viewBox="0 0 16 16">
      <path id="Vector" d="M10.3 8.9C11.8 8.1 12.7 6.6 12.7 4.8C12.7 2.2 10.6 0.1 8 0.1C5.4 2.83122e-07 3.3 2.1 3.3 4.7C3.3 6.5 4.3 8 5.7 8.8C2.7 9.8 0.5 12.7 0.5 16H1.5C1.5 12.4 4.4 9.5 8 9.5C11.6 9.5 14.5 12.4 14.5 16H15.5C15.5 12.7 13.3 9.8 10.3 8.9ZM4.3 4.7C4.3 2.7 5.9 1 8 1C10.1 1 11.7 2.7 11.7 4.7C11.7 6.7 10.1 8.5 8 8.5C5.9 8.5 4.3 6.8 4.3 4.7Z"/>
    </symbol>

    <symbol id="well" viewBox="0 0 16 16">
      <path id="Vector" d="M12.8906 15H15V16H1V15H3.10938L6.60938 1H9.39062L12.8906 15ZM4.89062 12L4.14062 15H11.8594L8.60938 2H7.39062L5.89062 8H9.125L9.375 9H5.64062L5.14062 11H9.875L10.125 12H4.89062Z"/>
    </symbol>
  </defs>
</svg>
