<svg aria-hidden="true" style="position: absolute; width: 0; height: 0; overflow: hidden;" version="1.1"
     xmlns="http://www.w3.org/2000/svg" xmlns:xlink="http://www.w3.org/1999/xlink">
  <defs>
    <symbol id="add_circle" viewBox="0 0 16 16">
      <path id="Vector"
            d="M8 1C4.15 1 1 4.15 1 8C1 11.85 4.15 15 8 15C11.85 15 15 11.85 15 8C15 4.15 11.85 1 8 1ZM8 13.6C4.92 13.6 2.4 11.08 2.4 8C2.4 4.92 4.92 2.4 8 2.4C11.08 2.4 13.6 4.92 13.6 8C13.6 11.08 11.08 13.6 8 13.6Z"/>
      <path id="Vector_2"
            d="M8.70001 7.29998V5.19998H7.30001V7.29998H5.20001V8.69998H7.30001V10.8H8.70001V8.69998H10.8V7.29998H8.70001Z"/>
    </symbol>
	<symbol id="angle" viewBox="0 0 16 16">
      <path id="Vector" d="M12.9525 12.9525L12.025 13.88L11.4038 13.2587L12.3313 12.3313L10.6337 10.6337L9.70625 11.5612L9.085 10.94L10.0125 10.0125L8.315 8.315L7.3875 9.2425L6.76625 8.62125L7.69375 7.69375L5.9875 5.9875L5.06 6.915L4.43875 6.29375L5.36625 5.36625L3.66875 3.66875L2.74125 4.59625L2.12 3.975L3.0475 3.0475L1 1V13.25C1 14.2125 1.7875 15 2.75 15H15L12.9525 12.9525ZM3.625 12.375V7.335L8.665 12.375H3.625Z"/>
    </symbol>
    <symbol id="arrow_down" viewBox="0 0 16 16">
      <path id="Vector"
            d="M13.7662 6.76627L8.87501 11.6488V1H7.12499V11.6488L2.24249 6.75749L1 8.00002L8.00002 15L15 8.00002L13.7662 6.76627Z"/>
    </symbol>
    <symbol id="arrow_right" viewBox="0 0 16 16">
      <path id="Vector"
            d="M8.00002 1L6.76188 2.23814L11.6488 7.12499H1V8.87501H11.6488L6.76188 13.7619L8.00002 15L15 8.00002L8.00002 1Z"/>
    </symbol>
    <symbol id="arrow_select" viewBox="0 0 16 16">
      <path id="Vector" d="M4 6L8.00002 10L12 6H4Z"/>
    </symbol>
	<symbol id="arrow_up_down" viewBox="0 0 16 16">
      <path d="M4 9L8.00002 13L12 9H4Z"/>
		<path d="M4 7L8 3L12 7H4Z"/>
    </symbol>
	<symbol id="arrow_up_select" viewBox="0 0 16 16">
      <path id="Vector" d="M4 10L8 6L12 10H4Z"/>
    </symbol>
	<symbol id="calendar" viewBox="0 0 16 16">
      <path d="M8 6.85714H4.5V10.2857H8V6.85714Z" />
<path d="M13.4444 1.60001H12.6667V0H11.1111V1.60001H4.88889V0H3.33333V1.60001H2.55556C1.69613 1.60001 1.0078 2.316 1.0078 3.20002L1 14.4C1 15.284 1.6961 16 2.55556 16H13.4444C14.3039 16 15 15.284 15 14.4V3.19999C15 2.316 14.3039 1.60001 13.4444 1.60001ZM13.4444 14.4H2.55556V5.59998H13.4444V14.4Z" />

    </symbol>
    <symbol id="checkbox_off" viewBox="0 0 16 16">
      <path id="Vector"
            d="M14 0H2C0.9 0 0 0.9 0 2V14C0 15.1 0.9 16 2 16H14C15.1 16 16 15.1 16 14V2C16 0.9 15.1 0 14 0ZM14 14H2V2H14V14Z"/>
    </symbol>
    <symbol id="checkbox_on" viewBox="0 0 16 16">
      <path id="Vector"
            d="M14.2222 0H1.77779C0.795542 0 0 0.795542 0 1.77779V14.2223C0 15.2045 0.795542 16 1.77779 16H14.2223C15.2045 16 16 15.2045 16 14.2222V1.77779C16 0.795542 15.2045 0 14.2222 0ZM6.22221 12.4445L1.77779 8L3.03558 6.74221L6.22225 9.92887L12.9645 3.18667L14.2223 4.44446L6.22221 12.4445Z"/>
    </symbol>
    <symbol id="checkbox_undefined" viewBox="0 0 16 16">
      <path id="Vector"
            d="M14.2222 0H1.77779C0.8 0 0 0.8 0 1.77779V14.2223C0 15.2 0.8 16 1.77779 16H14.2223C15.2 16 16 15.2 16 14.2222V1.77779C16 0.8 15.2 0 14.2222 0ZM12.4445 8.88888H3.55554V7.11108H12.4444V8.88888H12.4445Z"/>
    </symbol>
    <symbol id="clear_input" viewBox="0 0 16 16">
      <path id="Vector"
            d="M7.99998 1C4.13251 1 1 4.13252 1 8C1 11.8675 4.13251 15 7.99998 15C11.8675 15 15 11.8675 15 8C15 4.13248 11.8675 1 7.99998 1ZM11.5 10.5095L10.5095 11.5L7.99998 8.99051L5.49049 11.5L4.49998 10.5095L7.00947 8L4.49998 5.4905L5.49049 4.49998L7.99998 7.00949L10.5095 4.49998L11.5 5.4905L8.99049 8L11.5 10.5095Z"/>
    </symbol>
	<symbol id="down_arrow_key" viewBox="0 0 16 16">
      <path id="Vector" d="M3.41 4.59L8 9.17L12.59 4.59L14 6L8 12L2 6L3.41 4.59Z" />

    </symbol>
      <symbol id="eye" viewBox="0 0 16 16">
      <path id="Vector"
            d="M8 2.54544C4.36364 2.54544 1.23636 4.79999 0 7.99999C1.23636 11.2 4.36364 13.4545 8 13.4545C11.6364 13.4545 14.7636 11.2 16 7.99999C14.7636 4.79999 11.6364 2.54544 8 2.54544ZM8 11.6363C5.96364 11.6363 4.36364 10.0363 4.36364 7.99999C4.36364 5.96362 5.96364 4.36362 8 4.36362C10.0364 4.36362 11.6364 5.96362 11.6364 7.99999C11.6364 10.0363 10.0364 11.6363 8 11.6363ZM8 5.81817C6.76364 5.81817 5.81818 6.76362 5.81818 7.99999C5.81818 9.23635 6.76364 10.1818 8 10.1818C9.23636 10.1818 10.1818 9.23635 10.1818 7.99999C10.1818 6.76362 9.23636 5.81817 8 5.81817Z"/>
    </symbol>
	<symbol id="folder" viewBox="0 0 16 16">
      <path id="Vector" d="M6.4 1.5H1.6C0.72 1.5 0.00799999 2.23125 0.00799999 3.125L0 12.875C0 13.7688 0.72 14.5 1.6 14.5H14.4C15.28 14.5 16 13.7688 16 12.875V4.75C16 3.85625 15.28 3.125 14.4 3.125H8L6.4 1.5Z" />
    </symbol>
	<symbol id="layer" viewBox="0 0 16 16">
      <path id="Vector" d="M2.55556 12.2778C3.20111 12.2778 3.72222 11.7567 3.72222 11.1111C3.72222 10.4656 3.20111 9.94444 2.55556 9.94444C1.91 9.94444 1.38889 10.4656 1.38889 11.1111C1.38889 11.7567 1.91 12.2778 2.55556 12.2778ZM5.66667 8.77778C6.09444 8.77778 6.44444 8.42778 6.44444 8C6.44444 7.57222 6.09444 7.22222 5.66667 7.22222C5.23889 7.22222 4.88889 7.57222 4.88889 8C4.88889 8.42778 5.23889 8.77778 5.66667 8.77778ZM5.66667 5.66667C6.09444 5.66667 6.44444 5.31667 6.44444 4.88889C6.44444 4.46111 6.09444 4.11111 5.66667 4.11111C5.23889 4.11111 4.88889 4.46111 4.88889 4.88889C4.88889 5.31667 5.23889 5.66667 5.66667 5.66667ZM1 15H15V13.4444H1V15ZM2.55556 6.05556C3.20111 6.05556 3.72222 5.53444 3.72222 4.88889C3.72222 4.24333 3.20111 3.72222 2.55556 3.72222C1.91 3.72222 1.38889 4.24333 1.38889 4.88889C1.38889 5.53444 1.91 6.05556 2.55556 6.05556ZM2.55556 9.16667C3.20111 9.16667 3.72222 8.64556 3.72222 8C3.72222 7.35444 3.20111 6.83333 2.55556 6.83333C1.91 6.83333 1.38889 7.35444 1.38889 8C1.38889 8.64556 1.91 9.16667 2.55556 9.16667ZM5.66667 11.8889C6.09444 11.8889 6.44444 11.5389 6.44444 11.1111C6.44444 10.6833 6.09444 10.3333 5.66667 10.3333C5.23889 10.3333 4.88889 10.6833 4.88889 11.1111C4.88889 11.5389 5.23889 11.8889 5.66667 11.8889ZM11.8889 11.5C12.1067 11.5 12.2778 11.3289 12.2778 11.1111C12.2778 10.8933 12.1067 10.7222 11.8889 10.7222C11.6711 10.7222 11.5 10.8933 11.5 11.1111C11.5 11.3289 11.6711 11.5 11.8889 11.5ZM1 1V2.55556H15V1H1ZM11.8889 5.27778C12.1067 5.27778 12.2778 5.10667 12.2778 4.88889C12.2778 4.67111 12.1067 4.5 11.8889 4.5C11.6711 4.5 11.5 4.67111 11.5 4.88889C11.5 5.10667 11.6711 5.27778 11.8889 5.27778ZM11.8889 8.38889C12.1067 8.38889 12.2778 8.21778 12.2778 8C12.2778 7.78222 12.1067 7.61111 11.8889 7.61111C11.6711 7.61111 11.5 7.78222 11.5 8C11.5 8.21778 11.6711 8.38889 11.8889 8.38889ZM8.77778 5.66667C9.20556 5.66667 9.55556 5.31667 9.55556 4.88889C9.55556 4.46111 9.20556 4.11111 8.77778 4.11111C8.35 4.11111 8 4.46111 8 4.88889C8 5.31667 8.35 5.66667 8.77778 5.66667ZM8.77778 8.77778C9.20556 8.77778 9.55556 8.42778 9.55556 8C9.55556 7.57222 9.20556 7.22222 8.77778 7.22222C8.35 7.22222 8 7.57222 8 8C8 8.42778 8.35 8.77778 8.77778 8.77778ZM8.77778 11.8889C9.20556 11.8889 9.55556 11.5389 9.55556 11.1111C9.55556 10.6833 9.20556 10.3333 8.77778 10.3333C8.35 10.3333 8 10.6833 8 11.1111C8 11.5389 8.35 11.8889 8.77778 11.8889Z"/>
    </symbol>
	<symbol id="left_arrow_key" viewBox="0 0 16 16">
      <path id="Vector" d="M11.41 12.59L6.83 8L11.41 3.41L10 2L4 8L10 14L11.41 12.59Z"/>
    </symbol>
	<symbol id="map" viewBox="0 0 16 16">
      <path id="Vector" d="M14.6111 1L14.4867 1.02333L10.3333 2.63333L5.66667 1L1.28 2.47778C1.11667 2.53222 1 2.67222 1 2.85111V14.6111C1 14.8289 1.17111 15 1.38889 15L1.51333 14.9767L5.66667 13.3667L10.3333 15L14.72 13.5222C14.8833 13.4678 15 13.3278 15 13.1489V1.38889C15 1.17111 14.8289 1 14.6111 1ZM10.3333 13.4444L5.66667 11.8033V2.55556L10.3333 4.19667V13.4444Z"/>
    </symbol>
    <symbol id="more_vertical" viewBox="0 0 16 16">
      <path id="Vector"
            d="M8 4.5C8.9625 4.5 9.75 3.7125 9.75 2.75C9.75 1.7875 8.9625 1 8 1C7.0375 1 6.25 1.7875 6.25 2.75C6.25 3.7125 7.0375 4.5 8 4.5ZM8 6.25C7.0375 6.25 6.25 7.0375 6.25 8C6.25 8.9625 7.0375 9.75 8 9.75C8.9625 9.75 9.75 8.9625 9.75 8C9.75 7.0375 8.9625 6.25 8 6.25ZM8 11.5C7.0375 11.5 6.25 12.2875 6.25 13.25C6.25 14.2125 7.0375 15 8 15C8.9625 15 9.75 14.2125 9.75 13.25C9.75 12.2875 8.9625 11.5 8 11.5Z"/>
    </symbol>
	<symbol id="project" viewBox="0 0 16 16">
      <path id="Vector" d="M7.99167 13.8773L1.85 9.06974L0.5 10.1269L8 16L15.5 10.1269L14.1417 9.06135L7.99167 13.8773ZM8 11.7462L14.1333 6.93865L15.5 5.8731L8 0L0.5 5.8731L1.85833 6.93865L8 11.7462Z"/>
    </symbol>
	<symbol id="right_arrow_key" viewBox="0 0 16 16">
      <path id="Vector" d="M4.59 12.59L9.17 8L4.59 3.41L6 2L12 8L6 14L4.59 12.59Z" />
    </symbol>
	<symbol id="settings" viewBox="0 0 16 16">
      <path id="Vector" d="M13.7317 8.78333C13.765 8.53333 13.7817 8.275 13.7817 8C13.7817 7.73333 13.765 7.46667 13.7233 7.21667L15.415 5.9C15.565 5.78333 15.6067 5.55833 15.515 5.39167L13.915 2.625C13.815 2.44167 13.6067 2.38333 13.4233 2.44167L11.4317 3.24167C11.015 2.925 10.5733 2.65833 10.0817 2.45833L9.78167 0.341667C9.74833 0.141667 9.58167 0 9.38167 0H6.18167C5.98167 0 5.82333 0.141667 5.79 0.341667L5.49 2.45833C4.99833 2.65833 4.54833 2.93333 4.14 3.24167L2.14833 2.44167C1.965 2.375 1.75667 2.44167 1.65667 2.625L0.0650003 5.39167C-0.0349997 5.56667 -0.00166647 5.78333 0.165 5.9L1.85667 7.21667C1.815 7.46667 1.78167 7.74167 1.78167 8C1.78167 8.25833 1.79833 8.53333 1.84 8.78333L0.148334 10.1C-0.00166646 10.2167 -0.043333 10.4417 0.0483336 10.6083L1.64833 13.375C1.74833 13.5583 1.95667 13.6167 2.14 13.5583L4.13167 12.7583C4.54833 13.075 4.99 13.3417 5.48167 13.5417L5.78167 15.6583C5.82333 15.8583 5.98167 16 6.18167 16H9.38167C9.58167 16 9.74833 15.8583 9.77333 15.6583L10.0733 13.5417C10.565 13.3417 11.015 13.075 11.4233 12.7583L13.415 13.5583C13.5983 13.625 13.8067 13.5583 13.9067 13.375L15.5067 10.6083C15.6067 10.425 15.565 10.2167 15.4067 10.1L13.7317 8.78333ZM7.78167 11C6.13167 11 4.78167 9.65 4.78167 8C4.78167 6.35 6.13167 5 7.78167 5C9.43167 5 10.7817 6.35 10.7817 8C10.7817 9.65 9.43167 11 7.78167 11Z"/>
    </symbol>
	<symbol id="tick" viewBox="0 0 16 16">
      <path id="Vector" d="M14.7125 1.99998L5.08161 11.4685L1.28747 7.73832L0 9.00408L5.08161 14L16 3.26574L14.7125 1.99998Z"/>
    </symbol>
	<symbol id="tubes" viewBox="0 0 16 16">
      <path d="M1 1H2.19701V1.65855H8.04259C8.54207 1.65855 8.98205 1.89132 9.29945 2.25125C9.60304 2.59547 9.77827 3.13464 9.77827 3.59028V6.13673H10.3369V7.43186H5.66847V6.11478H6.26698V5.50013L2.20704 5.52208V6.13673L1.01995 6.15868L1 1Z"/>
		<path d="M15 15.0001L13.8664 14.9923L13.8312 14.458H7.98559C7.48611 14.458 7.04613 14.2252 6.72873 13.8653C6.42514 13.521 6.24991 12.9819 6.24991 12.5262V9.97977H5.69129V8.68465H10.3597V10.0017H9.7612V10.6164L13.8211 10.5944L13.8494 10.104L14.9941 10.113L15 15.0001Z"/>
    </symbol>
	<symbol id="up_arrow_key" viewBox="0 0 16 16">
      <path id="Vector" d="M3.41 11.41L8 6.83L12.59 11.41L14 10L8 4L2 10L3.41 11.41Z" />
    </symbol>
    <symbol id="user" viewBox="0 0 16 16">
      <path id="Vector"
            d="M8 8C9.925 8 11.5 6.425 11.5 4.5C11.5 2.575 9.925 1 8 1C6.075 1 4.5 2.575 4.5 4.5C4.5 6.425 6.075 8 8 8ZM8 9.75C5.6375 9.75 1 10.8875 1 13.25V15H15V13.25C15 10.8875 10.3625 9.75 8 9.75Z"/>
    </symbol>
	<symbol id="well" viewBox="0 0 16 16">
      <path id="Vector" d="M6.57579 0.362024C5.22769 4.0623 2.08127 14.0333 2.08127 14.0333L1 14.0333V16.0027L15 16V13.9905L13.8762 13.9932C13.8762 13.9932 10.8412 4.49113 9.42188 0.319273C9.26603 -0.138815 6.73587 -0.0773748 6.57579 0.362024ZM8.00005 2.29766L9.26093 6.37693L6.73934 6.35695L8.00005 2.29766ZM6.31205 7.66307H9.62403L9.81644 8.20571L8.0215 9.87355L6.11989 8.20571L6.31205 7.66307ZM5.71382 9.61246L7.03871 10.8583L4.7735 12.9884L5.71382 9.61246ZM10.2864 9.65263L11.2906 13.0086L8.98295 10.8582L10.2864 9.65263ZM8.04267 11.8229L10.2864 14.0132L5.71382 13.9731L8.04267 11.8229Z"/>
    </symbol>
  </defs>
</svg>
