<svg aria-hidden="true" style="position: absolute; width: 0; height: 0; overflow: hidden;" version="1.1"
     xmlns="http://www.w3.org/2000/svg" xmlns:xlink="http://www.w3.org/1999/xlink">
  <defs>
    <symbol id="add_circle" viewBox="0 0 16 16">
      <path id="Vector"
            d="M8 1C4.15 1 1 4.15 1 8C1 11.85 4.15 15 8 15C11.85 15 15 11.85 15 8C15 4.15 11.85 1 8 1ZM8 13.6C4.92 13.6 2.4 11.08 2.4 8C2.4 4.92 4.92 2.4 8 2.4C11.08 2.4 13.6 4.92 13.6 8C13.6 11.08 11.08 13.6 8 13.6Z"/>
      <path id="Vector_2"
            d="M8.70001 7.29998V5.19998H7.30001V7.29998H5.20001V8.69998H7.30001V10.8H8.70001V8.69998H10.8V7.29998H8.70001Z"/>
    </symbol>
    <symbol id="arrow_down" viewBox="0 0 16 16">
      <path id="Vector"
            d="M13.7662 6.76627L8.87501 11.6488V1H7.12499V11.6488L2.24249 6.75749L1 8.00002L8.00002 15L15 8.00002L13.7662 6.76627Z"/>
    </symbol>
    <symbol id="arrow_right" viewBox="0 0 16 16">
      <path id="Vector"
            d="M8.00002 1L6.76188 2.23814L11.6488 7.12499H1V8.87501H11.6488L6.76188 13.7619L8.00002 15L15 8.00002L8.00002 1Z"/>
    </symbol>
    <symbol id="arrow_select" viewBox="0 0 16 16">
      <path id="Vector" d="M4 6L8.00002 10L12 6H4Z"/>
    </symbol>
    <symbol id="checkbox_off" viewBox="0 0 16 16">
      <path id="Vector"
            d="M14 0H2C0.9 0 0 0.9 0 2V14C0 15.1 0.9 16 2 16H14C15.1 16 16 15.1 16 14V2C16 0.9 15.1 0 14 0ZM14 14H2V2H14V14Z"/>
    </symbol>
    <symbol id="checkbox_on" viewBox="0 0 16 16">
      <path id="Vector"
            d="M14.2222 0H1.77779C0.795542 0 0 0.795542 0 1.77779V14.2223C0 15.2045 0.795542 16 1.77779 16H14.2223C15.2045 16 16 15.2045 16 14.2222V1.77779C16 0.795542 15.2045 0 14.2222 0ZM6.22221 12.4445L1.77779 8L3.03558 6.74221L6.22225 9.92887L12.9645 3.18667L14.2223 4.44446L6.22221 12.4445Z"/>
    </symbol>
    <symbol id="checkbox_undefined" viewBox="0 0 16 16">
      <path id="Vector"
            d="M14.2222 0H1.77779C0.8 0 0 0.8 0 1.77779V14.2223C0 15.2 0.8 16 1.77779 16H14.2223C15.2 16 16 15.2 16 14.2222V1.77779C16 0.8 15.2 0 14.2222 0ZM12.4445 8.88888H3.55554V7.11108H12.4444V8.88888H12.4445Z"/>
    </symbol>
    <symbol id="clear_input" viewBox="0 0 16 16">
      <path id="Vector"
            d="M7.99998 1C4.13251 1 1 4.13252 1 8C1 11.8675 4.13251 15 7.99998 15C11.8675 15 15 11.8675 15 8C15 4.13248 11.8675 1 7.99998 1ZM11.5 10.5095L10.5095 11.5L7.99998 8.99051L5.49049 11.5L4.49998 10.5095L7.00947 8L4.49998 5.4905L5.49049 4.49998L7.99998 7.00949L10.5095 4.49998L11.5 5.4905L8.99049 8L11.5 10.5095Z"/>
    </symbol>
    <symbol id="eye" viewBox="0 0 16 16">
      <path id="Vector"
            d="M8 2.54544C4.36364 2.54544 1.23636 4.79999 0 7.99999C1.23636 11.2 4.36364 13.4545 8 13.4545C11.6364 13.4545 14.7636 11.2 16 7.99999C14.7636 4.79999 11.6364 2.54544 8 2.54544ZM8 11.6363C5.96364 11.6363 4.36364 10.0363 4.36364 7.99999C4.36364 5.96362 5.96364 4.36362 8 4.36362C10.0364 4.36362 11.6364 5.96362 11.6364 7.99999C11.6364 10.0363 10.0364 11.6363 8 11.6363ZM8 5.81817C6.76364 5.81817 5.81818 6.76362 5.81818 7.99999C5.81818 9.23635 6.76364 10.1818 8 10.1818C9.23636 10.1818 10.1818 9.23635 10.1818 7.99999C10.1818 6.76362 9.23636 5.81817 8 5.81817Z"/>
    </symbol>
    <symbol id="more_vertical" viewBox="0 0 16 16">
      <path id="Vector"
            d="M8 4.5C8.9625 4.5 9.75 3.7125 9.75 2.75C9.75 1.7875 8.9625 1 8 1C7.0375 1 6.25 1.7875 6.25 2.75C6.25 3.7125 7.0375 4.5 8 4.5ZM8 6.25C7.0375 6.25 6.25 7.0375 6.25 8C6.25 8.9625 7.0375 9.75 8 9.75C8.9625 9.75 9.75 8.9625 9.75 8C9.75 7.0375 8.9625 6.25 8 6.25ZM8 11.5C7.0375 11.5 6.25 12.2875 6.25 13.25C6.25 14.2125 7.0375 15 8 15C8.9625 15 9.75 14.2125 9.75 13.25C9.75 12.2875 8.9625 11.5 8 11.5Z"/>
    </symbol>
    <symbol id="user" viewBox="0 0 16 16">
      <path id="Vector"
            d="M8 8C9.925 8 11.5 6.425 11.5 4.5C11.5 2.575 9.925 1 8 1C6.075 1 4.5 2.575 4.5 4.5C4.5 6.425 6.075 8 8 8ZM8 9.75C5.6375 9.75 1 10.8875 1 13.25V15H15V13.25C15 10.8875 10.3625 9.75 8 9.75Z"/>
    </symbol>
  </defs>
</svg>
