<svg width="16" height="16" viewBox="0 0 16 16" fill="none" xmlns="http://www.w3.org/2000/svg">
<g id="more_vertical">
<g id="Group">
<g id="more vert">
<path id="Vector" d="M8 4.5C8.9625 4.5 9.75 3.7125 9.75 2.75C9.75 1.7875 8.9625 1 8 1C7.0375 1 6.25 1.7875 6.25 2.75C6.25 3.7125 7.0375 4.5 8 4.5ZM8 6.25C7.0375 6.25 6.25 7.0375 6.25 8C6.25 8.9625 7.0375 9.75 8 9.75C8.9625 9.75 9.75 8.9625 9.75 8C9.75 7.0375 8.9625 6.25 8 6.25ZM8 11.5C7.0375 11.5 6.25 12.2875 6.25 13.25C6.25 14.2125 7.0375 15 8 15C8.9625 15 9.75 14.2125 9.75 13.25C9.75 12.2875 8.9625 11.5 8 11.5Z" fill="#4E56A2"/>
</g>
</g>
</g>
</svg>
