<svg width="16" height="16" viewBox="0 0 16 16" fill="none" xmlns="http://www.w3.org/2000/svg">
<g id="eye">
<g id="Group">
<g id="visibility">
<path id="Vector" d="M8 2.54544C4.36364 2.54544 1.23636 4.79999 0 7.99999C1.23636 11.2 4.36364 13.4545 8 13.4545C11.6364 13.4545 14.7636 11.2 16 7.99999C14.7636 4.79999 11.6364 2.54544 8 2.54544ZM8 11.6363C5.96364 11.6363 4.36364 10.0363 4.36364 7.99999C4.36364 5.96362 5.96364 4.36362 8 4.36362C10.0364 4.36362 11.6364 5.96362 11.6364 7.99999C11.6364 10.0363 10.0364 11.6363 8 11.6363ZM8 5.81817C6.76364 5.81817 5.81818 6.76362 5.81818 7.99999C5.81818 9.23635 6.76364 10.1818 8 10.1818C9.23636 10.1818 10.1818 9.23635 10.1818 7.99999C10.1818 6.76362 9.23636 5.81817 8 5.81817Z" fill="#4E56A2"/>
</g>
</g>
</g>
</svg>
